<?xml version="1.0" encoding="UTF-8" standalone="no"?>
<!DOCTYPE svg PUBLIC "-//W3C//DTD SVG 1.1//EN"
 "http://www.w3.org/Graphics/SVG/1.1/DTD/svg11.dtd">
<!-- Generated by graphviz version 5.0.0 (20220707.1540)
 -->
<!-- Title: dependencies Pages: 1 -->
<svg width="1572pt" height="247pt"
 viewBox="0.00 0.00 1572.00 246.80" xmlns="http://www.w3.org/2000/svg" xmlns:xlink="http://www.w3.org/1999/xlink">
<g id="graph0" class="graph" transform="scale(1 1) rotate(0) translate(4 242.8)">
<title>dependencies</title>
<polygon fill="white" stroke="transparent" points="-4,4 -4,-242.8 1568,-242.8 1568,4 -4,4"/>
<text text-anchor="middle" x="782" y="-8.2" font-family="sans-serif" font-size="14.00">dependencies</text>
<g id="clust1" class="cluster">
<title>cluster_CoreModule</title>
<polygon fill="none" stroke="black" stroke-dasharray="1,5" points="8,-32.8 8,-230.8 1556,-230.8 1556,-32.8 8,-32.8"/>
</g>
<g id="clust9" class="cluster">
<title>cluster_CoreModule_exports</title>
<polygon fill="none" stroke="black" points="216,-170.8 216,-222.8 1195,-222.8 1195,-170.8 216,-170.8"/>
</g>
<g id="clust11" class="cluster">
<title>cluster_CoreModule_providers</title>
<polygon fill="none" stroke="black" points="986,-40.8 986,-92.8 1548,-92.8 1548,-40.8 986,-40.8"/>
</g>
<g id="clust2" class="cluster">
<title>cluster_CoreModule_declarations</title>
<polygon fill="none" stroke="black" points="146,-40.8 146,-92.8 978,-92.8 978,-40.8 146,-40.8"/>
</g>
<g id="clust8" class="cluster">
<title>cluster_CoreModule_imports</title>
<polygon fill="none" stroke="black" points="16,-40.8 16,-92.8 138,-92.8 138,-40.8 16,-40.8"/>
</g>
<!-- ConfirmationDialogComponent -->
<g id="node1" class="node">
<title>ConfirmationDialogComponent</title>
<polygon fill="#ffffb3" stroke="black" points="970.37,-84.8 775.63,-84.8 775.63,-48.8 970.37,-48.8 970.37,-84.8"/>
<text text-anchor="middle" x="873" y="-62.6" font-family="Times,serif" font-size="14.00">ConfirmationDialogComponent</text>
</g>
<!-- CoreModule -->
<g id="node6" class="node">
<title>CoreModule</title>
<polygon fill="#8dd3c7" stroke="black" points="737.27,-149.8 734.27,-153.8 713.27,-153.8 710.27,-149.8 650.73,-149.8 650.73,-113.8 737.27,-113.8 737.27,-149.8"/>
<text text-anchor="middle" x="694" y="-127.6" font-family="Times,serif" font-size="14.00">CoreModule</text>
</g>
<!-- ConfirmationDialogComponent&#45;&gt;CoreModule -->
<g id="edge1" class="edge">
<title>ConfirmationDialogComponent&#45;&gt;CoreModule</title>
<path fill="none" stroke="black" d="M798.4,-85.04C798.4,-100.37 798.4,-119.8 798.4,-119.8 798.4,-119.8 747.37,-119.8 747.37,-119.8"/>
<polygon fill="black" stroke="black" points="747.37,-116.3 737.37,-119.8 747.37,-123.3 747.37,-116.3"/>
</g>
<!-- LoadingComponent -->
<g id="node2" class="node">
<title>LoadingComponent</title>
<polygon fill="#ffffb3" stroke="black" points="757.99,-84.8 630.01,-84.8 630.01,-48.8 757.99,-48.8 757.99,-84.8"/>
<text text-anchor="middle" x="694" y="-62.6" font-family="Times,serif" font-size="14.00">LoadingComponent</text>
</g>
<!-- LoadingComponent&#45;&gt;CoreModule -->
<g id="edge2" class="edge">
<title>LoadingComponent&#45;&gt;CoreModule</title>
<path fill="none" stroke="black" d="M694,-84.91C694,-84.91 694,-103.79 694,-103.79"/>
<polygon fill="black" stroke="black" points="690.5,-103.79 694,-113.79 697.5,-103.79 690.5,-103.79"/>
</g>
<!-- MessagesComponent -->
<g id="node3" class="node">
<title>MessagesComponent</title>
<polygon fill="#ffffb3" stroke="black" points="611.77,-84.8 476.23,-84.8 476.23,-48.8 611.77,-48.8 611.77,-84.8"/>
<text text-anchor="middle" x="544" y="-62.6" font-family="Times,serif" font-size="14.00">MessagesComponent</text>
</g>
<!-- MessagesComponent&#45;&gt;CoreModule -->
<g id="edge3" class="edge">
<title>MessagesComponent&#45;&gt;CoreModule</title>
<path fill="none" stroke="black" d="M582.62,-85.04C582.62,-100.37 582.62,-119.8 582.62,-119.8 582.62,-119.8 640.62,-119.8 640.62,-119.8"/>
<polygon fill="black" stroke="black" points="640.62,-123.3 650.62,-119.8 640.62,-116.3 640.62,-123.3"/>
</g>
<!-- PageNotFoundComponent -->
<g id="node4" class="node">
<title>PageNotFoundComponent</title>
<polygon fill="#ffffb3" stroke="black" points="457.83,-84.8 292.17,-84.8 292.17,-48.8 457.83,-48.8 457.83,-84.8"/>
<text text-anchor="middle" x="375" y="-62.6" font-family="Times,serif" font-size="14.00">PageNotFoundComponent</text>
</g>
<!-- PageNotFoundComponent&#45;&gt;CoreModule -->
<g id="edge4" class="edge">
<title>PageNotFoundComponent&#45;&gt;CoreModule</title>
<path fill="none" stroke="black" d="M412.12,-84.83C412.12,-101.86 412.12,-124.8 412.12,-124.8 412.12,-124.8 640.57,-124.8 640.57,-124.8"/>
<polygon fill="black" stroke="black" points="640.57,-128.3 650.57,-124.8 640.57,-121.3 640.57,-128.3"/>
</g>
<!-- toolbarComponent -->
<g id="node5" class="node">
<title>toolbarComponent</title>
<polygon fill="#ffffb3" stroke="black" points="274.49,-84.8 153.51,-84.8 153.51,-48.8 274.49,-48.8 274.49,-84.8"/>
<text text-anchor="middle" x="214" y="-62.6" font-family="Times,serif" font-size="14.00">toolbarComponent</text>
</g>
<!-- toolbarComponent&#45;&gt;CoreModule -->
<g id="edge5" class="edge">
<title>toolbarComponent&#45;&gt;CoreModule</title>
<path fill="none" stroke="black" d="M249.12,-85.02C249.12,-103.63 249.12,-129.8 249.12,-129.8 249.12,-129.8 640.53,-129.8 640.53,-129.8"/>
<polygon fill="black" stroke="black" points="640.53,-133.3 650.53,-129.8 640.53,-126.3 640.53,-133.3"/>
</g>
<!-- ConfirmationDialogComponent  -->
<g id="node8" class="node">
<title>ConfirmationDialogComponent </title>
<polygon fill="#fb8072" stroke="black" points="1187.37,-214.8 988.63,-214.8 988.63,-178.8 1187.37,-178.8 1187.37,-214.8"/>
<text text-anchor="middle" x="1088" y="-192.6" font-family="Times,serif" font-size="14.00">ConfirmationDialogComponent </text>
</g>
<!-- CoreModule&#45;&gt;ConfirmationDialogComponent  -->
<g id="edge7" class="edge">
<title>CoreModule&#45;&gt;ConfirmationDialogComponent </title>
<path fill="none" stroke="black" stroke-dasharray="5,2" d="M737.51,-139.8C831.68,-139.8 1045.98,-139.8 1045.98,-139.8 1045.98,-139.8 1045.98,-168.76 1045.98,-168.76"/>
<polygon fill="black" stroke="black" points="1042.48,-168.76 1045.98,-178.76 1049.48,-168.76 1042.48,-168.76"/>
</g>
<!-- LoadingComponent  -->
<g id="node9" class="node">
<title>LoadingComponent </title>
<polygon fill="#fb8072" stroke="black" points="970.99,-214.8 839.01,-214.8 839.01,-178.8 970.99,-178.8 970.99,-214.8"/>
<text text-anchor="middle" x="905" y="-192.6" font-family="Times,serif" font-size="14.00">LoadingComponent </text>
</g>
<!-- CoreModule&#45;&gt;LoadingComponent  -->
<g id="edge8" class="edge">
<title>CoreModule&#45;&gt;LoadingComponent </title>
<path fill="none" stroke="black" stroke-dasharray="5,2" d="M737.43,-144.8C799.15,-144.8 904.85,-144.8 904.85,-144.8 904.85,-144.8 904.85,-168.61 904.85,-168.61"/>
<polygon fill="black" stroke="black" points="901.35,-168.61 904.85,-178.61 908.35,-168.61 901.35,-168.61"/>
</g>
<!-- MaterialModule  -->
<g id="node10" class="node">
<title>MaterialModule </title>
<polygon fill="#fb8072" stroke="black" points="821.47,-214.8 710.53,-214.8 710.53,-178.8 821.47,-178.8 821.47,-214.8"/>
<text text-anchor="middle" x="766" y="-192.6" font-family="Times,serif" font-size="14.00">MaterialModule </text>
</g>
<!-- CoreModule&#45;&gt;MaterialModule  -->
<g id="edge9" class="edge">
<title>CoreModule&#45;&gt;MaterialModule </title>
<path fill="none" stroke="black" stroke-dasharray="5,2" d="M724.07,-149.91C724.07,-149.91 724.07,-168.79 724.07,-168.79"/>
<polygon fill="black" stroke="black" points="720.57,-168.79 724.07,-178.79 727.57,-168.79 720.57,-168.79"/>
</g>
<!-- MessagesComponent  -->
<g id="node11" class="node">
<title>MessagesComponent </title>
<polygon fill="#fb8072" stroke="black" points="692.77,-214.8 553.23,-214.8 553.23,-178.8 692.77,-178.8 692.77,-214.8"/>
<text text-anchor="middle" x="623" y="-192.6" font-family="Times,serif" font-size="14.00">MessagesComponent </text>
</g>
<!-- CoreModule&#45;&gt;MessagesComponent  -->
<g id="edge10" class="edge">
<title>CoreModule&#45;&gt;MessagesComponent </title>
<path fill="none" stroke="black" stroke-dasharray="5,2" d="M671.62,-149.91C671.62,-149.91 671.62,-168.79 671.62,-168.79"/>
<polygon fill="black" stroke="black" points="668.13,-168.79 671.62,-178.79 675.13,-168.79 668.13,-168.79"/>
</g>
<!-- PageNotFoundComponent  -->
<g id="node12" class="node">
<title>PageNotFoundComponent </title>
<polygon fill="#fb8072" stroke="black" points="535.33,-214.8 366.67,-214.8 366.67,-178.8 535.33,-178.8 535.33,-214.8"/>
<text text-anchor="middle" x="451" y="-192.6" font-family="Times,serif" font-size="14.00">PageNotFoundComponent </text>
</g>
<!-- CoreModule&#45;&gt;PageNotFoundComponent  -->
<g id="edge11" class="edge">
<title>CoreModule&#45;&gt;PageNotFoundComponent </title>
<path fill="none" stroke="black" stroke-dasharray="5,2" d="M650.34,-144.8C594.74,-144.8 505.77,-144.8 505.77,-144.8 505.77,-144.8 505.77,-168.61 505.77,-168.61"/>
<polygon fill="black" stroke="black" points="502.27,-168.61 505.77,-178.61 509.27,-168.61 502.27,-168.61"/>
</g>
<!-- toolbarComponent  -->
<g id="node13" class="node">
<title>toolbarComponent </title>
<polygon fill="#fb8072" stroke="black" points="348.49,-214.8 223.51,-214.8 223.51,-178.8 348.49,-178.8 348.49,-214.8"/>
<text text-anchor="middle" x="286" y="-192.6" font-family="Times,serif" font-size="14.00">toolbarComponent </text>
</g>
<!-- CoreModule&#45;&gt;toolbarComponent  -->
<g id="edge12" class="edge">
<title>CoreModule&#45;&gt;toolbarComponent </title>
<path fill="none" stroke="black" stroke-dasharray="5,2" d="M650.4,-139.8C551.82,-139.8 320.29,-139.8 320.29,-139.8 320.29,-139.8 320.29,-168.76 320.29,-168.76"/>
<polygon fill="black" stroke="black" points="316.79,-168.76 320.29,-178.76 323.79,-168.76 316.79,-168.76"/>
</g>
<!-- MaterialModule -->
<g id="node7" class="node">
<title>MaterialModule</title>
<polygon fill="#8dd3c7" stroke="black" points="130.47,-84.8 127.47,-88.8 106.47,-88.8 103.47,-84.8 23.53,-84.8 23.53,-48.8 130.47,-48.8 130.47,-84.8"/>
<text text-anchor="middle" x="77" y="-62.6" font-family="Times,serif" font-size="14.00">MaterialModule</text>
</g>
<!-- MaterialModule&#45;&gt;CoreModule -->
<g id="edge6" class="edge">
<title>MaterialModule&#45;&gt;CoreModule</title>
<path fill="none" stroke="black" d="M77,-85.02C77,-105.17 77,-134.8 77,-134.8 77,-134.8 640.61,-134.8 640.61,-134.8"/>
<polygon fill="black" stroke="black" points="640.61,-138.3 650.61,-134.8 640.61,-131.3 640.61,-138.3"/>
</g>
<!-- HttpErrorInterceptor -->
<g id="node14" class="node">
<title>HttpErrorInterceptor</title>
<ellipse fill="#fdb462" stroke="black" cx="1449" cy="-66.8" rx="90.87" ry="18"/>
<text text-anchor="middle" x="1449" y="-62.6" font-family="Times,serif" font-size="14.00">HttpErrorInterceptor</text>
</g>
<!-- HttpErrorInterceptor&#45;&gt;CoreModule -->
<g id="edge13" class="edge">
<title>HttpErrorInterceptor&#45;&gt;CoreModule</title>
<path fill="none" stroke="black" d="M1449,-85.02C1449,-105.17 1449,-134.8 1449,-134.8 1449,-134.8 747.3,-134.8 747.3,-134.8"/>
<polygon fill="black" stroke="black" points="747.3,-131.3 737.3,-134.8 747.3,-138.3 747.3,-131.3"/>
</g>
<!-- LoadingInterceptor -->
<g id="node15" class="node">
<title>LoadingInterceptor</title>
<ellipse fill="#fdb462" stroke="black" cx="1254" cy="-66.8" rx="85.65" ry="18"/>
<text text-anchor="middle" x="1254" y="-62.6" font-family="Times,serif" font-size="14.00">LoadingInterceptor</text>
</g>
<!-- LoadingInterceptor&#45;&gt;CoreModule -->
<g id="edge14" class="edge">
<title>LoadingInterceptor&#45;&gt;CoreModule</title>
<path fill="none" stroke="black" d="M1177.8,-75.04C1177.8,-92.11 1177.8,-129.8 1177.8,-129.8 1177.8,-129.8 747.36,-129.8 747.36,-129.8"/>
<polygon fill="black" stroke="black" points="747.36,-126.3 737.36,-129.8 747.36,-133.3 747.36,-126.3"/>
</g>
<!-- TokenInterceptor -->
<g id="node16" class="node">
<title>TokenInterceptor</title>
<ellipse fill="#fdb462" stroke="black" cx="1072" cy="-66.8" rx="78.13" ry="18"/>
<text text-anchor="middle" x="1072" y="-62.6" font-family="Times,serif" font-size="14.00">TokenInterceptor</text>
</g>
<!-- TokenInterceptor&#45;&gt;CoreModule -->
<g id="edge15" class="edge">
<title>TokenInterceptor&#45;&gt;CoreModule</title>
<path fill="none" stroke="black" d="M1098.02,-83.89C1098.02,-101 1098.02,-124.8 1098.02,-124.8 1098.02,-124.8 747.62,-124.8 747.62,-124.8"/>
<polygon fill="black" stroke="black" points="747.62,-121.3 737.62,-124.8 747.62,-128.3 747.62,-121.3"/>
</g>
</g>
</svg>
