<?xml version="1.0" encoding="UTF-8" standalone="no"?>
<!DOCTYPE svg PUBLIC "-//W3C//DTD SVG 1.1//EN"
 "http://www.w3.org/Graphics/SVG/1.1/DTD/svg11.dtd">
<!-- Generated by graphviz version 5.0.0 (20220707.1540)
 -->
<!-- Title: dependencies Pages: 1 -->
<svg width="180pt" height="182pt"
 viewBox="0.00 0.00 180.00 181.80" xmlns="http://www.w3.org/2000/svg" xmlns:xlink="http://www.w3.org/1999/xlink">
<g id="graph0" class="graph" transform="scale(1 1) rotate(0) translate(4 177.8)">
<title>dependencies</title>
<polygon fill="white" stroke="transparent" points="-4,4 -4,-177.8 176,-177.8 176,4 -4,4"/>
<text text-anchor="middle" x="86" y="-8.2" font-family="sans-serif" font-size="14.00">dependencies</text>
<g id="clust1" class="cluster">
<title>cluster_MaterialModule</title>
<polygon fill="none" stroke="black" stroke-dasharray="1,5" points="8,-32.8 8,-165.8 164,-165.8 164,-32.8 8,-32.8"/>
</g>
<g id="clust4" class="cluster">
<title>cluster_MaterialModule_exports</title>
<polygon fill="none" stroke="black" points="16,-105.8 16,-157.8 142,-157.8 142,-105.8 16,-105.8"/>
</g>
<g id="clust3" class="cluster">
<title>cluster_MaterialModule_imports</title>
<polygon fill="none" stroke="black" points="16,-40.8 16,-92.8 156,-92.8 156,-40.8 16,-40.8"/>
</g>
<!-- MaterialModule -->
<g id="node1" class="node">
<title>MaterialModule</title>
<polygon fill="#8dd3c7" stroke="black" points="130.47,-84.8 127.47,-88.8 106.47,-88.8 103.47,-84.8 23.53,-84.8 23.53,-48.8 130.47,-48.8 130.47,-84.8"/>
<text text-anchor="middle" x="77" y="-62.6" font-family="Times,serif" font-size="14.00">MaterialModule</text>
</g>
<!-- MaterialModule&#45;&gt;MaterialModule -->
<g id="edge1" class="edge">
<title>MaterialModule&#45;&gt;MaterialModule</title>
<path fill="none" stroke="black" d="M77,-48.38C77,-39.52 77,-30.8 77,-30.8 77,-30.8 5.51,-30.8 5.51,-30.8 5.51,-30.8 5.51,-99.8 5.51,-99.8 5.51,-99.8 59.34,-99.8 59.34,-99.8 59.34,-99.8 59.34,-94.84 59.34,-94.84"/>
<polygon fill="black" stroke="black" points="62.84,-94.84 59.34,-84.84 55.84,-94.84 62.84,-94.84"/>
</g>
<!-- MaterialModule  -->
<g id="node2" class="node">
<title>MaterialModule </title>
<polygon fill="#fb8072" stroke="black" points="134.47,-149.8 23.53,-149.8 23.53,-113.8 134.47,-113.8 134.47,-149.8"/>
<text text-anchor="middle" x="79" y="-127.6" font-family="Times,serif" font-size="14.00">MaterialModule </text>
</g>
<!-- MaterialModule&#45;&gt;MaterialModule  -->
<g id="edge2" class="edge">
<title>MaterialModule&#45;&gt;MaterialModule </title>
<path fill="none" stroke="black" stroke-dasharray="5,2" d="M94.91,-84.91C94.91,-84.91 94.91,-103.79 94.91,-103.79"/>
<polygon fill="black" stroke="black" points="91.41,-103.79 94.91,-113.79 98.41,-103.79 91.41,-103.79"/>
</g>
</g>
</svg>
