<?xml version="1.0" encoding="UTF-8" standalone="no"?>
<!DOCTYPE svg PUBLIC "-//W3C//DTD SVG 1.1//EN"
 "http://www.w3.org/Graphics/SVG/1.1/DTD/svg11.dtd">
<!-- Generated by graphviz version 5.0.0 (20220707.1540)
 -->
<!-- Title: dependencies Pages: 1 -->
<svg width="1002pt" height="247pt"
 viewBox="0.00 0.00 1002.00 246.80" xmlns="http://www.w3.org/2000/svg" xmlns:xlink="http://www.w3.org/1999/xlink">
<g id="graph0" class="graph" transform="scale(1 1) rotate(0) translate(4 242.8)">
<title>dependencies</title>
<polygon fill="white" stroke="transparent" points="-4,4 -4,-242.8 998,-242.8 998,4 -4,4"/>
<text text-anchor="middle" x="497" y="-8.2" font-family="sans-serif" font-size="14.00">dependencies</text>
<g id="clust1" class="cluster">
<title>cluster_SharedModule</title>
<polygon fill="none" stroke="black" stroke-dasharray="1,5" points="8,-32.8 8,-230.8 986,-230.8 986,-32.8 8,-32.8"/>
</g>
<g id="clust2" class="cluster">
<title>cluster_SharedModule_declarations</title>
<polygon fill="none" stroke="black" points="146,-40.8 146,-92.8 978,-92.8 978,-40.8 146,-40.8"/>
</g>
<g id="clust8" class="cluster">
<title>cluster_SharedModule_imports</title>
<polygon fill="none" stroke="black" points="16,-40.8 16,-92.8 138,-92.8 138,-40.8 16,-40.8"/>
</g>
<g id="clust9" class="cluster">
<title>cluster_SharedModule_exports</title>
<polygon fill="none" stroke="black" points="72,-170.8 72,-222.8 922,-222.8 922,-170.8 72,-170.8"/>
</g>
<!-- ConfirmationDialogComponent -->
<g id="node1" class="node">
<title>ConfirmationDialogComponent</title>
<polygon fill="#ffffb3" stroke="black" points="970.37,-84.8 775.63,-84.8 775.63,-48.8 970.37,-48.8 970.37,-84.8"/>
<text text-anchor="middle" x="873" y="-62.6" font-family="Times,serif" font-size="14.00">ConfirmationDialogComponent</text>
</g>
<!-- SharedModule -->
<g id="node6" class="node">
<title>SharedModule</title>
<polygon fill="#8dd3c7" stroke="black" points="528.43,-149.8 525.43,-153.8 504.43,-153.8 501.43,-149.8 429.57,-149.8 429.57,-113.8 528.43,-113.8 528.43,-149.8"/>
<text text-anchor="middle" x="479" y="-127.6" font-family="Times,serif" font-size="14.00">SharedModule</text>
</g>
<!-- ConfirmationDialogComponent&#45;&gt;SharedModule -->
<g id="edge1" class="edge">
<title>ConfirmationDialogComponent&#45;&gt;SharedModule</title>
<path fill="none" stroke="black" d="M844.88,-85.07C844.88,-103.36 844.88,-128.8 844.88,-128.8 844.88,-128.8 538.34,-128.8 538.34,-128.8"/>
<polygon fill="black" stroke="black" points="538.34,-125.3 528.34,-128.8 538.34,-132.3 538.34,-125.3"/>
</g>
<!-- LoadingComponent -->
<g id="node2" class="node">
<title>LoadingComponent</title>
<polygon fill="#ffffb3" stroke="black" points="757.99,-84.8 630.01,-84.8 630.01,-48.8 757.99,-48.8 757.99,-84.8"/>
<text text-anchor="middle" x="694" y="-62.6" font-family="Times,serif" font-size="14.00">LoadingComponent</text>
</g>
<!-- LoadingComponent&#45;&gt;SharedModule -->
<g id="edge2" class="edge">
<title>LoadingComponent&#45;&gt;SharedModule</title>
<path fill="none" stroke="black" d="M663.88,-84.81C663.88,-100.85 663.88,-121.8 663.88,-121.8 663.88,-121.8 538.54,-121.8 538.54,-121.8"/>
<polygon fill="black" stroke="black" points="538.54,-118.3 528.54,-121.8 538.54,-125.3 538.54,-118.3"/>
</g>
<!-- MessagesComponent -->
<g id="node3" class="node">
<title>MessagesComponent</title>
<polygon fill="#ffffb3" stroke="black" points="611.77,-84.8 476.23,-84.8 476.23,-48.8 611.77,-48.8 611.77,-84.8"/>
<text text-anchor="middle" x="544" y="-62.6" font-family="Times,serif" font-size="14.00">MessagesComponent</text>
</g>
<!-- MessagesComponent&#45;&gt;SharedModule -->
<g id="edge3" class="edge">
<title>MessagesComponent&#45;&gt;SharedModule</title>
<path fill="none" stroke="black" d="M502.17,-84.91C502.17,-84.91 502.17,-103.79 502.17,-103.79"/>
<polygon fill="black" stroke="black" points="498.67,-103.79 502.17,-113.79 505.67,-103.79 498.67,-103.79"/>
</g>
<!-- PageNotFoundComponent -->
<g id="node4" class="node">
<title>PageNotFoundComponent</title>
<polygon fill="#ffffb3" stroke="black" points="457.83,-84.8 292.17,-84.8 292.17,-48.8 457.83,-48.8 457.83,-84.8"/>
<text text-anchor="middle" x="375" y="-62.6" font-family="Times,serif" font-size="14.00">PageNotFoundComponent</text>
</g>
<!-- PageNotFoundComponent&#45;&gt;SharedModule -->
<g id="edge4" class="edge">
<title>PageNotFoundComponent&#45;&gt;SharedModule</title>
<path fill="none" stroke="black" d="M443.73,-84.91C443.73,-84.91 443.73,-103.79 443.73,-103.79"/>
<polygon fill="black" stroke="black" points="440.23,-103.79 443.73,-113.79 447.23,-103.79 440.23,-103.79"/>
</g>
<!-- toolbarComponent -->
<g id="node5" class="node">
<title>toolbarComponent</title>
<polygon fill="#ffffb3" stroke="black" points="274.49,-84.8 153.51,-84.8 153.51,-48.8 274.49,-48.8 274.49,-84.8"/>
<text text-anchor="middle" x="214" y="-62.6" font-family="Times,serif" font-size="14.00">toolbarComponent</text>
</g>
<!-- toolbarComponent&#45;&gt;SharedModule -->
<g id="edge5" class="edge">
<title>toolbarComponent&#45;&gt;SharedModule</title>
<path fill="none" stroke="black" d="M248.54,-84.81C248.54,-100.85 248.54,-121.8 248.54,-121.8 248.54,-121.8 419.56,-121.8 419.56,-121.8"/>
<polygon fill="black" stroke="black" points="419.56,-125.3 429.56,-121.8 419.56,-118.3 419.56,-125.3"/>
</g>
<!-- ConfirmationDialogComponent  -->
<g id="node8" class="node">
<title>ConfirmationDialogComponent </title>
<polygon fill="#fb8072" stroke="black" points="914.37,-214.8 715.63,-214.8 715.63,-178.8 914.37,-178.8 914.37,-214.8"/>
<text text-anchor="middle" x="815" y="-192.6" font-family="Times,serif" font-size="14.00">ConfirmationDialogComponent </text>
</g>
<!-- SharedModule&#45;&gt;ConfirmationDialogComponent  -->
<g id="edge7" class="edge">
<title>SharedModule&#45;&gt;ConfirmationDialogComponent </title>
<path fill="none" stroke="black" stroke-dasharray="5,2" d="M528.42,-135.8C603.31,-135.8 736.9,-135.8 736.9,-135.8 736.9,-135.8 736.9,-168.5 736.9,-168.5"/>
<polygon fill="black" stroke="black" points="733.4,-168.5 736.9,-178.5 740.4,-168.5 733.4,-168.5"/>
</g>
<!-- LoadingComponent  -->
<g id="node9" class="node">
<title>LoadingComponent </title>
<polygon fill="#fb8072" stroke="black" points="697.99,-214.8 566.01,-214.8 566.01,-178.8 697.99,-178.8 697.99,-214.8"/>
<text text-anchor="middle" x="632" y="-192.6" font-family="Times,serif" font-size="14.00">LoadingComponent </text>
</g>
<!-- SharedModule&#45;&gt;LoadingComponent  -->
<g id="edge8" class="edge">
<title>SharedModule&#45;&gt;LoadingComponent </title>
<path fill="none" stroke="black" stroke-dasharray="5,2" d="M528.24,-142.8C557.55,-142.8 589.07,-142.8 589.07,-142.8 589.07,-142.8 589.07,-168.52 589.07,-168.52"/>
<polygon fill="black" stroke="black" points="585.57,-168.52 589.07,-178.52 592.57,-168.52 585.57,-168.52"/>
</g>
<!-- MessagesComponent  -->
<g id="node10" class="node">
<title>MessagesComponent </title>
<polygon fill="#fb8072" stroke="black" points="548.77,-214.8 409.23,-214.8 409.23,-178.8 548.77,-178.8 548.77,-214.8"/>
<text text-anchor="middle" x="479" y="-192.6" font-family="Times,serif" font-size="14.00">MessagesComponent </text>
</g>
<!-- SharedModule&#45;&gt;MessagesComponent  -->
<g id="edge9" class="edge">
<title>SharedModule&#45;&gt;MessagesComponent </title>
<path fill="none" stroke="black" stroke-dasharray="5,2" d="M479,-149.91C479,-149.91 479,-168.79 479,-168.79"/>
<polygon fill="black" stroke="black" points="475.5,-168.79 479,-178.79 482.5,-168.79 475.5,-168.79"/>
</g>
<!-- PageNotFoundComponent  -->
<g id="node11" class="node">
<title>PageNotFoundComponent </title>
<polygon fill="#fb8072" stroke="black" points="391.33,-214.8 222.67,-214.8 222.67,-178.8 391.33,-178.8 391.33,-214.8"/>
<text text-anchor="middle" x="307" y="-192.6" font-family="Times,serif" font-size="14.00">PageNotFoundComponent </text>
</g>
<!-- SharedModule&#45;&gt;PageNotFoundComponent  -->
<g id="edge10" class="edge">
<title>SharedModule&#45;&gt;PageNotFoundComponent </title>
<path fill="none" stroke="black" stroke-dasharray="5,2" d="M429.49,-142.8C390.22,-142.8 341.88,-142.8 341.88,-142.8 341.88,-142.8 341.88,-168.52 341.88,-168.52"/>
<polygon fill="black" stroke="black" points="338.38,-168.52 341.88,-178.52 345.38,-168.52 338.38,-168.52"/>
</g>
<!-- toolbarComponent  -->
<g id="node12" class="node">
<title>toolbarComponent </title>
<polygon fill="#fb8072" stroke="black" points="204.49,-214.8 79.51,-214.8 79.51,-178.8 204.49,-178.8 204.49,-214.8"/>
<text text-anchor="middle" x="142" y="-192.6" font-family="Times,serif" font-size="14.00">toolbarComponent </text>
</g>
<!-- SharedModule&#45;&gt;toolbarComponent  -->
<g id="edge11" class="edge">
<title>SharedModule&#45;&gt;toolbarComponent </title>
<path fill="none" stroke="black" stroke-dasharray="5,2" d="M429.78,-135.8C344.63,-135.8 178.88,-135.8 178.88,-135.8 178.88,-135.8 178.88,-168.5 178.88,-168.5"/>
<polygon fill="black" stroke="black" points="175.38,-168.5 178.88,-178.5 182.38,-168.5 175.38,-168.5"/>
</g>
<!-- MaterialModule -->
<g id="node7" class="node">
<title>MaterialModule</title>
<polygon fill="#8dd3c7" stroke="black" points="130.47,-84.8 127.47,-88.8 106.47,-88.8 103.47,-84.8 23.53,-84.8 23.53,-48.8 130.47,-48.8 130.47,-84.8"/>
<text text-anchor="middle" x="77" y="-62.6" font-family="Times,serif" font-size="14.00">MaterialModule</text>
</g>
<!-- MaterialModule&#45;&gt;SharedModule -->
<g id="edge6" class="edge">
<title>MaterialModule&#45;&gt;SharedModule</title>
<path fill="none" stroke="black" d="M105.12,-85.07C105.12,-103.36 105.12,-128.8 105.12,-128.8 105.12,-128.8 419.74,-128.8 419.74,-128.8"/>
<polygon fill="black" stroke="black" points="419.74,-132.3 429.74,-128.8 419.74,-125.3 419.74,-132.3"/>
</g>
</g>
</svg>
