<?xml version="1.0" encoding="UTF-8" standalone="no"?>
<!DOCTYPE svg PUBLIC "-//W3C//DTD SVG 1.1//EN"
 "http://www.w3.org/Graphics/SVG/1.1/DTD/svg11.dtd">
<!-- Generated by graphviz version 5.0.0 (20220707.1540)
 -->
<!-- Title: dependencies Pages: 1 -->
<svg width="748pt" height="174pt"
 viewBox="0.00 0.00 748.00 173.80" xmlns="http://www.w3.org/2000/svg" xmlns:xlink="http://www.w3.org/1999/xlink">
<g id="graph0" class="graph" transform="scale(1 1) rotate(0) translate(4 169.8)">
<title>dependencies</title>
<polygon fill="white" stroke="transparent" points="-4,4 -4,-169.8 744,-169.8 744,4 -4,4"/>
<text text-anchor="middle" x="370" y="-8.2" font-family="sans-serif" font-size="14.00">dependencies</text>
<g id="clust1" class="cluster">
<title>cluster_HeroesModule</title>
<polygon fill="none" stroke="black" stroke-dasharray="1,5" points="8,-32.8 8,-157.8 732,-157.8 732,-32.8 8,-32.8"/>
</g>
<g id="clust2" class="cluster">
<title>cluster_HeroesModule_declarations</title>
<polygon fill="none" stroke="black" points="426,-40.8 426,-92.8 724,-92.8 724,-40.8 426,-40.8"/>
</g>
<g id="clust5" class="cluster">
<title>cluster_HeroesModule_imports</title>
<polygon fill="none" stroke="black" points="16,-40.8 16,-92.8 418,-92.8 418,-40.8 16,-40.8"/>
</g>
<!-- HeroDetailComponent -->
<g id="node1" class="node">
<title>HeroDetailComponent</title>
<polygon fill="#ffffb3" stroke="black" points="715.53,-84.8 572.47,-84.8 572.47,-48.8 715.53,-48.8 715.53,-84.8"/>
<text text-anchor="middle" x="644" y="-62.6" font-family="Times,serif" font-size="14.00">HeroDetailComponent</text>
</g>
<!-- HeroesModule -->
<g id="node3" class="node">
<title>HeroesModule</title>
<polygon fill="#8dd3c7" stroke="black" points="387.7,-149.8 384.7,-153.8 363.7,-153.8 360.7,-149.8 288.3,-149.8 288.3,-113.8 387.7,-113.8 387.7,-149.8"/>
<text text-anchor="middle" x="338" y="-127.6" font-family="Times,serif" font-size="14.00">HeroesModule</text>
</g>
<!-- HeroDetailComponent&#45;&gt;HeroesModule -->
<g id="edge1" class="edge">
<title>HeroDetailComponent&#45;&gt;HeroesModule</title>
<path fill="none" stroke="black" d="M644,-85.08C644,-106.12 644,-137.8 644,-137.8 644,-137.8 397.85,-137.8 397.85,-137.8"/>
<polygon fill="black" stroke="black" points="397.85,-134.3 387.85,-137.8 397.85,-141.3 397.85,-134.3"/>
</g>
<!-- HeroesComponent -->
<g id="node2" class="node">
<title>HeroesComponent</title>
<polygon fill="#ffffb3" stroke="black" points="554.48,-84.8 433.52,-84.8 433.52,-48.8 554.48,-48.8 554.48,-84.8"/>
<text text-anchor="middle" x="494" y="-62.6" font-family="Times,serif" font-size="14.00">HeroesComponent</text>
</g>
<!-- HeroesComponent&#45;&gt;HeroesModule -->
<g id="edge2" class="edge">
<title>HeroesComponent&#45;&gt;HeroesModule</title>
<path fill="none" stroke="black" d="M494,-84.82C494,-102.17 494,-125.8 494,-125.8 494,-125.8 397.79,-125.8 397.79,-125.8"/>
<polygon fill="black" stroke="black" points="397.79,-122.3 387.79,-125.8 397.79,-129.3 397.79,-122.3"/>
</g>
<!-- HeroesRoutingModule -->
<g id="node4" class="node">
<title>HeroesRoutingModule</title>
<polygon fill="#8dd3c7" stroke="black" points="410.32,-84.8 407.32,-88.8 386.32,-88.8 383.32,-84.8 265.68,-84.8 265.68,-48.8 410.32,-48.8 410.32,-84.8"/>
<text text-anchor="middle" x="338" y="-62.6" font-family="Times,serif" font-size="14.00">HeroesRoutingModule</text>
</g>
<!-- HeroesRoutingModule&#45;&gt;HeroesModule -->
<g id="edge3" class="edge">
<title>HeroesRoutingModule&#45;&gt;HeroesModule</title>
<path fill="none" stroke="black" d="M338,-84.91C338,-84.91 338,-103.79 338,-103.79"/>
<polygon fill="black" stroke="black" points="334.5,-103.79 338,-113.79 341.5,-103.79 334.5,-103.79"/>
</g>
<!-- MaterialModule -->
<g id="node5" class="node">
<title>MaterialModule</title>
<polygon fill="#8dd3c7" stroke="black" points="247.47,-84.8 244.47,-88.8 223.47,-88.8 220.47,-84.8 140.53,-84.8 140.53,-48.8 247.47,-48.8 247.47,-84.8"/>
<text text-anchor="middle" x="194" y="-62.6" font-family="Times,serif" font-size="14.00">MaterialModule</text>
</g>
<!-- MaterialModule&#45;&gt;HeroesModule -->
<g id="edge4" class="edge">
<title>MaterialModule&#45;&gt;HeroesModule</title>
<path fill="none" stroke="black" d="M194,-84.82C194,-102.17 194,-125.8 194,-125.8 194,-125.8 278.04,-125.8 278.04,-125.8"/>
<polygon fill="black" stroke="black" points="278.04,-129.3 288.04,-125.8 278.04,-122.3 278.04,-129.3"/>
</g>
<!-- SharedModule -->
<g id="node6" class="node">
<title>SharedModule</title>
<polygon fill="#8dd3c7" stroke="black" points="122.43,-84.8 119.43,-88.8 98.43,-88.8 95.43,-84.8 23.57,-84.8 23.57,-48.8 122.43,-48.8 122.43,-84.8"/>
<text text-anchor="middle" x="73" y="-62.6" font-family="Times,serif" font-size="14.00">SharedModule</text>
</g>
<!-- SharedModule&#45;&gt;HeroesModule -->
<g id="edge5" class="edge">
<title>SharedModule&#45;&gt;HeroesModule</title>
<path fill="none" stroke="black" d="M73,-85.08C73,-106.12 73,-137.8 73,-137.8 73,-137.8 278.16,-137.8 278.16,-137.8"/>
<polygon fill="black" stroke="black" points="278.16,-141.3 288.16,-137.8 278.16,-134.3 278.16,-141.3"/>
</g>
</g>
</svg>
