<?xml version="1.0" encoding="UTF-8" standalone="no"?>
<!DOCTYPE svg PUBLIC "-//W3C//DTD SVG 1.1//EN"
 "http://www.w3.org/Graphics/SVG/1.1/DTD/svg11.dtd">
<!-- Generated by graphviz version 5.0.0 (20220707.1540)
 -->
<!-- Title: dependencies Pages: 1 -->
<svg width="524pt" height="247pt"
 viewBox="0.00 0.00 524.00 246.80" xmlns="http://www.w3.org/2000/svg" xmlns:xlink="http://www.w3.org/1999/xlink">
<g id="graph0" class="graph" transform="scale(1 1) rotate(0) translate(4 242.8)">
<title>dependencies</title>
<polygon fill="white" stroke="transparent" points="-4,4 -4,-242.8 520,-242.8 520,4 -4,4"/>
<text text-anchor="middle" x="258" y="-8.2" font-family="sans-serif" font-size="14.00">dependencies</text>
<g id="clust1" class="cluster">
<title>cluster_AppModule</title>
<polygon fill="none" stroke="black" stroke-dasharray="1,5" points="8,-32.8 8,-230.8 508,-230.8 508,-32.8 8,-32.8"/>
</g>
<g id="clust6" class="cluster">
<title>cluster_AppModule_bootstrap</title>
<polygon fill="none" stroke="black" points="173,-170.8 173,-222.8 297,-222.8 297,-170.8 173,-170.8"/>
</g>
<g id="clust2" class="cluster">
<title>cluster_AppModule_declarations</title>
<polygon fill="none" stroke="black" points="378,-40.8 378,-92.8 500,-92.8 500,-40.8 378,-40.8"/>
</g>
<g id="clust4" class="cluster">
<title>cluster_AppModule_imports</title>
<polygon fill="none" stroke="black" points="16,-40.8 16,-92.8 370,-92.8 370,-40.8 16,-40.8"/>
</g>
<!-- AppComponent -->
<g id="node1" class="node">
<title>AppComponent</title>
<polygon fill="#ffffb3" stroke="black" points="491.94,-84.8 386.06,-84.8 386.06,-48.8 491.94,-48.8 491.94,-84.8"/>
<text text-anchor="middle" x="439" y="-62.6" font-family="Times,serif" font-size="14.00">AppComponent</text>
</g>
<!-- AppModule -->
<g id="node2" class="node">
<title>AppModule</title>
<polygon fill="#8dd3c7" stroke="black" points="276.66,-149.8 273.66,-153.8 252.66,-153.8 249.66,-149.8 193.34,-149.8 193.34,-113.8 276.66,-113.8 276.66,-149.8"/>
<text text-anchor="middle" x="235" y="-127.6" font-family="Times,serif" font-size="14.00">AppModule</text>
</g>
<!-- AppComponent&#45;&gt;AppModule -->
<g id="edge1" class="edge">
<title>AppComponent&#45;&gt;AppModule</title>
<path fill="none" stroke="black" d="M439,-84.91C439,-104.14 439,-131.8 439,-131.8 439,-131.8 286.77,-131.8 286.77,-131.8"/>
<polygon fill="black" stroke="black" points="286.77,-128.3 276.77,-131.8 286.77,-135.3 286.77,-128.3"/>
</g>
<!-- AppComponent  -->
<g id="node6" class="node">
<title>AppComponent </title>
<polygon fill="#80b1d3" stroke="black" points="289.44,-214.8 180.56,-214.8 180.56,-178.8 289.44,-178.8 289.44,-214.8"/>
<text text-anchor="middle" x="235" y="-192.6" font-family="Times,serif" font-size="14.00">AppComponent </text>
</g>
<!-- AppModule&#45;&gt;AppComponent  -->
<g id="edge5" class="edge">
<title>AppModule&#45;&gt;AppComponent </title>
<path fill="none" stroke="black" stroke-dasharray="1,5" d="M235,-149.91C235,-149.91 235,-168.79 235,-168.79"/>
<polygon fill="black" stroke="black" points="231.5,-168.79 235,-178.79 238.5,-168.79 231.5,-168.79"/>
</g>
<!-- AppRoutingModule -->
<g id="node3" class="node">
<title>AppRoutingModule</title>
<polygon fill="#8dd3c7" stroke="black" points="362.28,-84.8 359.28,-88.8 338.28,-88.8 335.28,-84.8 233.72,-84.8 233.72,-48.8 362.28,-48.8 362.28,-84.8"/>
<text text-anchor="middle" x="298" y="-62.6" font-family="Times,serif" font-size="14.00">AppRoutingModule</text>
</g>
<!-- AppRoutingModule&#45;&gt;AppModule -->
<g id="edge2" class="edge">
<title>AppRoutingModule&#45;&gt;AppModule</title>
<path fill="none" stroke="black" d="M255.22,-84.91C255.22,-84.91 255.22,-103.79 255.22,-103.79"/>
<polygon fill="black" stroke="black" points="251.72,-103.79 255.22,-113.79 258.72,-103.79 251.72,-103.79"/>
</g>
<!-- AuthModule -->
<g id="node4" class="node">
<title>AuthModule</title>
<polygon fill="#8dd3c7" stroke="black" points="215.55,-84.8 212.55,-88.8 191.55,-88.8 188.55,-84.8 128.45,-84.8 128.45,-48.8 215.55,-48.8 215.55,-84.8"/>
<text text-anchor="middle" x="172" y="-62.6" font-family="Times,serif" font-size="14.00">AuthModule</text>
</g>
<!-- AuthModule&#45;&gt;AppModule -->
<g id="edge3" class="edge">
<title>AuthModule&#45;&gt;AppModule</title>
<path fill="none" stroke="black" d="M204.47,-84.91C204.47,-84.91 204.47,-103.79 204.47,-103.79"/>
<polygon fill="black" stroke="black" points="200.97,-103.79 204.47,-113.79 207.97,-103.79 200.97,-103.79"/>
</g>
<!-- CoreModule -->
<g id="node5" class="node">
<title>CoreModule</title>
<polygon fill="#8dd3c7" stroke="black" points="110.27,-84.8 107.27,-88.8 86.27,-88.8 83.27,-84.8 23.73,-84.8 23.73,-48.8 110.27,-48.8 110.27,-84.8"/>
<text text-anchor="middle" x="67" y="-62.6" font-family="Times,serif" font-size="14.00">CoreModule</text>
</g>
<!-- CoreModule&#45;&gt;AppModule -->
<g id="edge4" class="edge">
<title>CoreModule&#45;&gt;AppModule</title>
<path fill="none" stroke="black" d="M67,-84.91C67,-104.14 67,-131.8 67,-131.8 67,-131.8 183.04,-131.8 183.04,-131.8"/>
<polygon fill="black" stroke="black" points="183.04,-135.3 193.04,-131.8 183.04,-128.3 183.04,-135.3"/>
</g>
</g>
</svg>
