<?xml version="1.0" encoding="UTF-8" standalone="no"?>
<!DOCTYPE svg PUBLIC "-//W3C//DTD SVG 1.1//EN"
 "http://www.w3.org/Graphics/SVG/1.1/DTD/svg11.dtd">
<!-- Generated by graphviz version 5.0.0 (20220707.1540)
 -->
<!-- Title: dependencies Pages: 1 -->
<svg width="3451pt" height="399pt"
 viewBox="0.00 0.00 3451.00 398.80" xmlns="http://www.w3.org/2000/svg" xmlns:xlink="http://www.w3.org/1999/xlink">
<g id="graph0" class="graph" transform="scale(1 1) rotate(0) translate(4 394.8)">
<title>dependencies</title>
<polygon fill="white" stroke="transparent" points="-4,4 -4,-394.8 3447,-394.8 3447,4 -4,4"/>
<text text-anchor="middle" x="1721.5" y="-8.2" font-family="sans-serif" font-size="14.00">dependencies</text>
<g id="clust1" class="cluster">
<title>cluster_AppModule</title>
<polygon fill="none" stroke="black" stroke-dasharray="1,5" points="742,-184.8 742,-382.8 1243,-382.8 1243,-184.8 742,-184.8"/>
</g>
<g id="clust2" class="cluster">
<title>cluster_AppModule_declarations</title>
<polygon fill="none" stroke="black" points="1113,-192.8 1113,-244.8 1235,-244.8 1235,-192.8 1113,-192.8"/>
</g>
<g id="clust4" class="cluster">
<title>cluster_AppModule_imports</title>
<polygon fill="none" stroke="black" points="750,-192.8 750,-244.8 1105,-244.8 1105,-192.8 750,-192.8"/>
</g>
<g id="clust6" class="cluster">
<title>cluster_AppModule_bootstrap</title>
<polygon fill="none" stroke="black" points="908,-322.8 908,-374.8 1032,-374.8 1032,-322.8 908,-322.8"/>
</g>
<g id="clust14" class="cluster">
<title>cluster_AuthModule</title>
<polygon fill="none" stroke="black" stroke-dasharray="1,5" points="98,-32.8 98,-100.8 543,-100.8 543,-32.8 98,-32.8"/>
</g>
<g id="clust15" class="cluster">
<title>cluster_AuthModule_declarations</title>
<polygon fill="none" stroke="black" points="106,-40.8 106,-92.8 236,-92.8 236,-40.8 106,-40.8"/>
</g>
<g id="clust17" class="cluster">
<title>cluster_AuthModule_imports</title>
<polygon fill="none" stroke="black" points="244,-40.8 244,-92.8 535,-92.8 535,-40.8 244,-40.8"/>
</g>
<g id="clust27" class="cluster">
<title>cluster_CoreModule</title>
<polygon fill="none" stroke="black" stroke-dasharray="1,5" points="8,-108.8 8,-176.8 2413,-176.8 2413,-108.8 8,-108.8"/>
</g>
<g id="clust28" class="cluster">
<title>cluster_CoreModule_declarations</title>
<polygon fill="none" stroke="black" points="1573,-116.8 1573,-168.8 2405,-168.8 2405,-116.8 1573,-116.8"/>
</g>
<g id="clust35" class="cluster">
<title>cluster_CoreModule_exports</title>
<polygon fill="none" stroke="black" points="586,-116.8 586,-168.8 1565,-168.8 1565,-116.8 586,-116.8"/>
</g>
<g id="clust37" class="cluster">
<title>cluster_CoreModule_providers</title>
<polygon fill="none" stroke="black" points="16,-116.8 16,-168.8 578,-168.8 578,-116.8 16,-116.8"/>
</g>
<g id="clust38" class="cluster">
<title>cluster_DashboardModule</title>
<polygon fill="none" stroke="black" stroke-dasharray="1,5" points="2443,-108.8 2443,-244.8 2923,-244.8 2923,-108.8 2443,-108.8"/>
</g>
<g id="clust39" class="cluster">
<title>cluster_DashboardModule_declarations</title>
<polygon fill="none" stroke="black" points="2451,-116.8 2451,-168.8 2609,-168.8 2609,-116.8 2451,-116.8"/>
</g>
<g id="clust41" class="cluster">
<title>cluster_DashboardModule_imports</title>
<polygon fill="none" stroke="black" points="2617,-116.8 2617,-168.8 2915,-168.8 2915,-116.8 2617,-116.8"/>
</g>
<g id="clust51" class="cluster">
<title>cluster_HeroesModule</title>
<polygon fill="none" stroke="black" stroke-dasharray="1,5" points="2953,-108.8 2953,-244.8 3435,-244.8 3435,-108.8 2953,-108.8"/>
</g>
<g id="clust52" class="cluster">
<title>cluster_HeroesModule_declarations</title>
<polygon fill="none" stroke="black" points="3129,-116.8 3129,-168.8 3427,-168.8 3427,-116.8 3129,-116.8"/>
</g>
<g id="clust55" class="cluster">
<title>cluster_HeroesModule_imports</title>
<polygon fill="none" stroke="black" points="2961,-116.8 2961,-168.8 3121,-168.8 3121,-116.8 2961,-116.8"/>
</g>
<!-- AppComponent -->
<g id="node1" class="node">
<title>AppComponent</title>
<polygon fill="#ffffb3" stroke="black" points="1226.94,-236.8 1121.06,-236.8 1121.06,-200.8 1226.94,-200.8 1226.94,-236.8"/>
<text text-anchor="middle" x="1174" y="-214.6" font-family="Times,serif" font-size="14.00">AppComponent</text>
</g>
<!-- AppModule -->
<g id="node2" class="node">
<title>AppModule</title>
<polygon fill="#8dd3c7" stroke="black" points="1011.66,-301.8 1008.66,-305.8 987.66,-305.8 984.66,-301.8 928.34,-301.8 928.34,-265.8 1011.66,-265.8 1011.66,-301.8"/>
<text text-anchor="middle" x="970" y="-279.6" font-family="Times,serif" font-size="14.00">AppModule</text>
</g>
<!-- AppComponent&#45;&gt;AppModule -->
<g id="edge1" class="edge">
<title>AppComponent&#45;&gt;AppModule</title>
<path fill="none" stroke="black" d="M1174,-236.91C1174,-256.14 1174,-283.8 1174,-283.8 1174,-283.8 1021.77,-283.8 1021.77,-283.8"/>
<polygon fill="black" stroke="black" points="1021.77,-280.3 1011.77,-283.8 1021.77,-287.3 1021.77,-280.3"/>
</g>
<!-- AppComponent  -->
<g id="node6" class="node">
<title>AppComponent </title>
<polygon fill="#80b1d3" stroke="black" points="1024.44,-366.8 915.56,-366.8 915.56,-330.8 1024.44,-330.8 1024.44,-366.8"/>
<text text-anchor="middle" x="970" y="-344.6" font-family="Times,serif" font-size="14.00">AppComponent </text>
</g>
<!-- AppModule&#45;&gt;AppComponent  -->
<g id="edge5" class="edge">
<title>AppModule&#45;&gt;AppComponent </title>
<path fill="none" stroke="black" stroke-dasharray="1,5" d="M970,-301.91C970,-301.91 970,-320.79 970,-320.79"/>
<polygon fill="black" stroke="black" points="966.5,-320.79 970,-330.79 973.5,-320.79 966.5,-320.79"/>
</g>
<!-- AppRoutingModule -->
<g id="node3" class="node">
<title>AppRoutingModule</title>
<polygon fill="#8dd3c7" stroke="black" points="1097.28,-236.8 1094.28,-240.8 1073.28,-240.8 1070.28,-236.8 968.72,-236.8 968.72,-200.8 1097.28,-200.8 1097.28,-236.8"/>
<text text-anchor="middle" x="1033" y="-214.6" font-family="Times,serif" font-size="14.00">AppRoutingModule</text>
</g>
<!-- AppRoutingModule&#45;&gt;AppModule -->
<g id="edge2" class="edge">
<title>AppRoutingModule&#45;&gt;AppModule</title>
<path fill="none" stroke="black" d="M990.22,-236.91C990.22,-236.91 990.22,-255.79 990.22,-255.79"/>
<polygon fill="black" stroke="black" points="986.72,-255.79 990.22,-265.79 993.72,-255.79 986.72,-255.79"/>
</g>
<!-- AuthModule -->
<g id="node4" class="node">
<title>AuthModule</title>
<polygon fill="#8dd3c7" stroke="black" points="845.55,-236.8 842.55,-240.8 821.55,-240.8 818.55,-236.8 758.45,-236.8 758.45,-200.8 845.55,-200.8 845.55,-236.8"/>
<text text-anchor="middle" x="802" y="-214.6" font-family="Times,serif" font-size="14.00">AuthModule</text>
</g>
<!-- AuthModule&#45;&gt;AppModule -->
<g id="edge3" class="edge">
<title>AuthModule&#45;&gt;AppModule</title>
<path fill="none" stroke="black" d="M802,-236.91C802,-256.14 802,-283.8 802,-283.8 802,-283.8 918.04,-283.8 918.04,-283.8"/>
<polygon fill="black" stroke="black" points="918.04,-287.3 928.04,-283.8 918.04,-280.3 918.04,-287.3"/>
</g>
<!-- CoreModule -->
<g id="node5" class="node">
<title>CoreModule</title>
<polygon fill="#8dd3c7" stroke="black" points="950.27,-236.8 947.27,-240.8 926.27,-240.8 923.27,-236.8 863.73,-236.8 863.73,-200.8 950.27,-200.8 950.27,-236.8"/>
<text text-anchor="middle" x="907" y="-214.6" font-family="Times,serif" font-size="14.00">CoreModule</text>
</g>
<!-- CoreModule&#45;&gt;AppModule -->
<g id="edge4" class="edge">
<title>CoreModule&#45;&gt;AppModule</title>
<path fill="none" stroke="black" d="M939.28,-236.91C939.28,-236.91 939.28,-255.79 939.28,-255.79"/>
<polygon fill="black" stroke="black" points="935.78,-255.79 939.28,-265.79 942.78,-255.79 935.78,-255.79"/>
</g>
<!-- ConfirmationDialogComponent  -->
<g id="node15" class="node">
<title>ConfirmationDialogComponent </title>
<polygon fill="#fb8072" stroke="black" points="1557.37,-160.8 1358.63,-160.8 1358.63,-124.8 1557.37,-124.8 1557.37,-160.8"/>
<text text-anchor="middle" x="1458" y="-138.6" font-family="Times,serif" font-size="14.00">ConfirmationDialogComponent </text>
</g>
<!-- CoreModule&#45;&gt;ConfirmationDialogComponent  -->
<g id="edge15" class="edge">
<title>CoreModule&#45;&gt;ConfirmationDialogComponent </title>
<path fill="none" stroke="black" stroke-dasharray="5,2" d="M947.68,-200.59C947.68,-195.25 947.68,-190.8 947.68,-190.8 947.68,-190.8 1424.94,-190.8 1424.94,-190.8 1424.94,-190.8 1424.94,-170.95 1424.94,-170.95"/>
<polygon fill="black" stroke="black" points="1428.44,-170.95 1424.94,-160.95 1421.44,-170.95 1428.44,-170.95"/>
</g>
<!-- LoadingComponent  -->
<g id="node16" class="node">
<title>LoadingComponent </title>
<polygon fill="#fb8072" stroke="black" points="1340.99,-160.8 1209.01,-160.8 1209.01,-124.8 1340.99,-124.8 1340.99,-160.8"/>
<text text-anchor="middle" x="1275" y="-138.6" font-family="Times,serif" font-size="14.00">LoadingComponent </text>
</g>
<!-- CoreModule&#45;&gt;LoadingComponent  -->
<g id="edge16" class="edge">
<title>CoreModule&#45;&gt;LoadingComponent </title>
<path fill="none" stroke="black" stroke-dasharray="5,2" d="M944.98,-200.66C944.98,-194.34 944.98,-188.8 944.98,-188.8 944.98,-188.8 1217.99,-188.8 1217.99,-188.8 1217.99,-188.8 1217.99,-170.98 1217.99,-170.98"/>
<polygon fill="black" stroke="black" points="1221.49,-170.98 1217.99,-160.98 1214.49,-170.98 1221.49,-170.98"/>
</g>
<!-- MaterialModule  -->
<g id="node17" class="node">
<title>MaterialModule </title>
<polygon fill="#fb8072" stroke="black" points="1191.47,-160.8 1080.53,-160.8 1080.53,-124.8 1191.47,-124.8 1191.47,-160.8"/>
<text text-anchor="middle" x="1136" y="-138.6" font-family="Times,serif" font-size="14.00">MaterialModule </text>
</g>
<!-- CoreModule&#45;&gt;MaterialModule  -->
<g id="edge17" class="edge">
<title>CoreModule&#45;&gt;MaterialModule </title>
<path fill="none" stroke="black" stroke-dasharray="5,2" d="M942.28,-200.77C942.28,-193.95 942.28,-187.8 942.28,-187.8 942.28,-187.8 1089.08,-187.8 1089.08,-187.8 1089.08,-187.8 1089.08,-170.84 1089.08,-170.84"/>
<polygon fill="black" stroke="black" points="1092.58,-170.84 1089.08,-160.84 1085.58,-170.84 1092.58,-170.84"/>
</g>
<!-- MessagesComponent  -->
<g id="node18" class="node">
<title>MessagesComponent </title>
<polygon fill="#fb8072" stroke="black" points="1062.77,-160.8 923.23,-160.8 923.23,-124.8 1062.77,-124.8 1062.77,-160.8"/>
<text text-anchor="middle" x="993" y="-138.6" font-family="Times,serif" font-size="14.00">MessagesComponent </text>
</g>
<!-- CoreModule&#45;&gt;MessagesComponent  -->
<g id="edge18" class="edge">
<title>CoreModule&#45;&gt;MessagesComponent </title>
<path fill="none" stroke="black" stroke-dasharray="5,2" d="M926.07,-200.79C926.07,-200.79 926.07,-170.95 926.07,-170.95"/>
<polygon fill="black" stroke="black" points="929.57,-170.95 926.07,-160.95 922.57,-170.95 929.57,-170.95"/>
</g>
<!-- PageNotFoundComponent  -->
<g id="node19" class="node">
<title>PageNotFoundComponent </title>
<polygon fill="#fb8072" stroke="black" points="905.33,-160.8 736.67,-160.8 736.67,-124.8 905.33,-124.8 905.33,-160.8"/>
<text text-anchor="middle" x="821" y="-138.6" font-family="Times,serif" font-size="14.00">PageNotFoundComponent </text>
</g>
<!-- CoreModule&#45;&gt;PageNotFoundComponent  -->
<g id="edge19" class="edge">
<title>CoreModule&#45;&gt;PageNotFoundComponent </title>
<path fill="none" stroke="black" stroke-dasharray="5,2" d="M893.47,-200.79C893.47,-200.79 893.47,-170.95 893.47,-170.95"/>
<polygon fill="black" stroke="black" points="896.97,-170.95 893.47,-160.95 889.97,-170.95 896.97,-170.95"/>
</g>
<!-- toolbarComponent  -->
<g id="node20" class="node">
<title>toolbarComponent </title>
<polygon fill="#fb8072" stroke="black" points="718.49,-160.8 593.51,-160.8 593.51,-124.8 718.49,-124.8 718.49,-160.8"/>
<text text-anchor="middle" x="656" y="-138.6" font-family="Times,serif" font-size="14.00">toolbarComponent </text>
</g>
<!-- CoreModule&#45;&gt;toolbarComponent  -->
<g id="edge20" class="edge">
<title>CoreModule&#45;&gt;toolbarComponent </title>
<path fill="none" stroke="black" stroke-dasharray="5,2" d="M887.5,-200.69C887.5,-190.9 887.5,-180.8 887.5,-180.8 887.5,-180.8 635.25,-180.8 635.25,-180.8 635.25,-180.8 635.25,-170.91 635.25,-170.91"/>
<polygon fill="black" stroke="black" points="638.75,-170.91 635.25,-160.91 631.75,-170.91 638.75,-170.91"/>
</g>
<!-- LoginComponent -->
<g id="node7" class="node">
<title>LoginComponent</title>
<polygon fill="#ffffb3" stroke="black" points="228.27,-84.8 113.73,-84.8 113.73,-48.8 228.27,-48.8 228.27,-84.8"/>
<text text-anchor="middle" x="171" y="-62.6" font-family="Times,serif" font-size="14.00">LoginComponent</text>
</g>
<!-- LoginComponent&#45;&gt;AuthModule -->
<g id="edge6" class="edge">
<title>LoginComponent&#45;&gt;AuthModule</title>
<path fill="none" stroke="black" d="M189.24,-84.96C189.24,-127.06 189.24,-227.8 189.24,-227.8 189.24,-227.8 748.42,-227.8 748.42,-227.8"/>
<polygon fill="black" stroke="black" points="748.42,-231.3 758.42,-227.8 748.42,-224.3 748.42,-231.3"/>
</g>
<!-- AuthRoutingModule -->
<g id="node8" class="node">
<title>AuthRoutingModule</title>
<polygon fill="#8dd3c7" stroke="black" points="384.17,-84.8 381.17,-88.8 360.17,-88.8 357.17,-84.8 251.83,-84.8 251.83,-48.8 384.17,-48.8 384.17,-84.8"/>
<text text-anchor="middle" x="318" y="-62.6" font-family="Times,serif" font-size="14.00">AuthRoutingModule</text>
</g>
<!-- AuthRoutingModule&#45;&gt;AuthModule -->
<g id="edge7" class="edge">
<title>AuthRoutingModule&#45;&gt;AuthModule</title>
<path fill="none" stroke="black" d="M376.96,-84.83C376.96,-125.1 376.96,-218.8 376.96,-218.8 376.96,-218.8 748.11,-218.8 748.11,-218.8"/>
<polygon fill="black" stroke="black" points="748.11,-222.3 758.11,-218.8 748.11,-215.3 748.11,-222.3"/>
</g>
<!-- MaterialModule -->
<g id="node9" class="node">
<title>MaterialModule</title>
<polygon fill="#8dd3c7" stroke="black" points="509.47,-84.8 506.47,-88.8 485.47,-88.8 482.47,-84.8 402.53,-84.8 402.53,-48.8 509.47,-48.8 509.47,-84.8"/>
<text text-anchor="middle" x="456" y="-62.6" font-family="Times,serif" font-size="14.00">MaterialModule</text>
</g>
<!-- MaterialModule&#45;&gt;AuthModule -->
<g id="edge8" class="edge">
<title>MaterialModule&#45;&gt;AuthModule</title>
<path fill="none" stroke="black" d="M509.74,-79.8C543.94,-79.8 581.85,-79.8 581.85,-79.8 581.85,-79.8 581.85,-209.8 581.85,-209.8 581.85,-209.8 748.24,-209.8 748.24,-209.8"/>
<polygon fill="black" stroke="black" points="748.24,-213.3 758.24,-209.8 748.24,-206.3 748.24,-213.3"/>
</g>
<!-- MaterialModule&#45;&gt;CoreModule -->
<g id="edge14" class="edge">
<title>MaterialModule&#45;&gt;CoreModule</title>
<path fill="none" stroke="black" d="M509.48,-74.8C630.4,-74.8 914.39,-74.8 914.39,-74.8 914.39,-74.8 914.39,-190.56 914.39,-190.56"/>
<polygon fill="black" stroke="black" points="910.89,-190.56 914.39,-200.56 917.89,-190.56 910.89,-190.56"/>
</g>
<!-- MaterialModule&#45;&gt;MaterialModule -->
<g id="edge33" class="edge">
<title>MaterialModule&#45;&gt;MaterialModule</title>
<path fill="none" stroke="black" d="M456,-48.38C456,-39.52 456,-30.8 456,-30.8 456,-30.8 395.29,-30.8 395.29,-30.8 395.29,-30.8 395.29,-104.8 395.29,-104.8 395.29,-104.8 456,-104.8 456,-104.8 456,-104.8 456,-94.91 456,-94.91"/>
<polygon fill="black" stroke="black" points="459.5,-94.91 456,-84.91 452.5,-94.91 459.5,-94.91"/>
</g>
<!-- MaterialModule&#45;&gt;MaterialModule  -->
<g id="edge34" class="edge">
<title>MaterialModule&#45;&gt;MaterialModule </title>
<path fill="none" stroke="black" stroke-dasharray="5,2" d="M509.64,-69.8C670.21,-69.8 1136,-69.8 1136,-69.8 1136,-69.8 1136,-114.76 1136,-114.76"/>
<polygon fill="black" stroke="black" points="1132.5,-114.76 1136,-124.76 1139.5,-114.76 1132.5,-114.76"/>
</g>
<!-- DashboardModule -->
<g id="node25" class="node">
<title>DashboardModule</title>
<polygon fill="#8dd3c7" stroke="black" points="2679.2,-236.8 2676.2,-240.8 2655.2,-240.8 2652.2,-236.8 2558.8,-236.8 2558.8,-200.8 2679.2,-200.8 2679.2,-236.8"/>
<text text-anchor="middle" x="2619" y="-214.6" font-family="Times,serif" font-size="14.00">DashboardModule</text>
</g>
<!-- MaterialModule&#45;&gt;DashboardModule -->
<g id="edge26" class="edge">
<title>MaterialModule&#45;&gt;DashboardModule</title>
<path fill="none" stroke="black" d="M509.59,-64.8C842.46,-64.8 2613.17,-64.8 2613.17,-64.8 2613.17,-64.8 2613.17,-190.53 2613.17,-190.53"/>
<polygon fill="black" stroke="black" points="2609.67,-190.53 2613.17,-200.53 2616.67,-190.53 2609.67,-190.53"/>
</g>
<!-- SharedModule -->
<g id="node27" class="node">
<title>SharedModule</title>
<polygon fill="#8dd3c7" stroke="black" points="2907.43,-160.8 2904.43,-164.8 2883.43,-164.8 2880.43,-160.8 2808.57,-160.8 2808.57,-124.8 2907.43,-124.8 2907.43,-160.8"/>
<text text-anchor="middle" x="2858" y="-138.6" font-family="Times,serif" font-size="14.00">SharedModule</text>
</g>
<!-- MaterialModule&#45;&gt;SharedModule -->
<g id="edge40" class="edge">
<title>MaterialModule&#45;&gt;SharedModule</title>
<path fill="none" stroke="black" d="M509.54,-59.8C863.95,-59.8 2858,-59.8 2858,-59.8 2858,-59.8 2858,-114.79 2858,-114.79"/>
<polygon fill="black" stroke="black" points="2854.5,-114.79 2858,-124.79 2861.5,-114.79 2854.5,-114.79"/>
</g>
<!-- HeroesModule -->
<g id="node30" class="node">
<title>HeroesModule</title>
<polygon fill="#8dd3c7" stroke="black" points="3090.7,-236.8 3087.7,-240.8 3066.7,-240.8 3063.7,-236.8 2991.3,-236.8 2991.3,-200.8 3090.7,-200.8 3090.7,-236.8"/>
<text text-anchor="middle" x="3041" y="-214.6" font-family="Times,serif" font-size="14.00">HeroesModule</text>
</g>
<!-- MaterialModule&#45;&gt;HeroesModule -->
<g id="edge31" class="edge">
<title>MaterialModule&#45;&gt;HeroesModule</title>
<path fill="none" stroke="black" d="M509.57,-54.8C870.91,-54.8 2938.03,-54.8 2938.03,-54.8 2938.03,-54.8 2938.03,-209.8 2938.03,-209.8 2938.03,-209.8 2981.32,-209.8 2981.32,-209.8"/>
<polygon fill="black" stroke="black" points="2981.32,-213.3 2991.32,-209.8 2981.32,-206.3 2981.32,-213.3"/>
</g>
<!-- ConfirmationDialogComponent -->
<g id="node10" class="node">
<title>ConfirmationDialogComponent</title>
<polygon fill="#ffffb3" stroke="black" points="2397.37,-160.8 2202.63,-160.8 2202.63,-124.8 2397.37,-124.8 2397.37,-160.8"/>
<text text-anchor="middle" x="2300" y="-138.6" font-family="Times,serif" font-size="14.00">ConfirmationDialogComponent</text>
</g>
<!-- ConfirmationDialogComponent&#45;&gt;CoreModule -->
<g id="edge9" class="edge">
<title>ConfirmationDialogComponent&#45;&gt;CoreModule</title>
<path fill="none" stroke="black" d="M2267.52,-160.84C2267.52,-177.53 2267.52,-199.8 2267.52,-199.8 2267.52,-199.8 939.58,-199.8 939.58,-199.8 939.58,-199.8 939.58,-199.88 939.58,-199.88"/>
<polygon fill="black" stroke="black" points="936.08,-190.62 939.58,-200.62 943.08,-190.62 936.08,-190.62"/>
</g>
<!-- ConfirmationDialogComponent&#45;&gt;SharedModule -->
<g id="edge35" class="edge">
<title>ConfirmationDialogComponent&#45;&gt;SharedModule</title>
<path fill="none" stroke="black" d="M2332.48,-160.95C2332.48,-162.1 2332.48,-162.8 2332.48,-162.8 2332.48,-162.8 2854.21,-162.8 2854.21,-162.8 2854.21,-162.8 2854.21,-162.62 2854.21,-162.62"/>
<polygon fill="black" stroke="black" points="2857.71,-170.95 2854.21,-160.95 2850.71,-170.95 2857.71,-170.95"/>
</g>
<!-- LoadingComponent -->
<g id="node11" class="node">
<title>LoadingComponent</title>
<polygon fill="#ffffb3" stroke="black" points="2184.99,-160.8 2057.01,-160.8 2057.01,-124.8 2184.99,-124.8 2184.99,-160.8"/>
<text text-anchor="middle" x="2121" y="-138.6" font-family="Times,serif" font-size="14.00">LoadingComponent</text>
</g>
<!-- LoadingComponent&#45;&gt;CoreModule -->
<g id="edge10" class="edge">
<title>LoadingComponent&#45;&gt;CoreModule</title>
<path fill="none" stroke="black" d="M2099.67,-160.81C2099.67,-176.85 2099.67,-197.8 2099.67,-197.8 2099.67,-197.8 936.88,-197.8 936.88,-197.8 936.88,-197.8 936.88,-198.09 936.88,-198.09"/>
<polygon fill="black" stroke="black" points="933.38,-190.72 936.88,-200.72 940.38,-190.72 933.38,-190.72"/>
</g>
<!-- LoadingComponent&#45;&gt;SharedModule -->
<g id="edge36" class="edge">
<title>LoadingComponent&#45;&gt;SharedModule</title>
<path fill="none" stroke="black" d="M2142.33,-160.97C2142.33,-163.25 2142.33,-164.8 2142.33,-164.8 2142.33,-164.8 2861.79,-164.8 2861.79,-164.8 2861.79,-164.8 2861.79,-164.42 2861.79,-164.42"/>
<polygon fill="black" stroke="black" points="2865.29,-170.97 2861.79,-160.97 2858.29,-170.97 2865.29,-170.97"/>
</g>
<!-- MessagesComponent -->
<g id="node12" class="node">
<title>MessagesComponent</title>
<polygon fill="#ffffb3" stroke="black" points="2038.77,-160.8 1903.23,-160.8 1903.23,-124.8 2038.77,-124.8 2038.77,-160.8"/>
<text text-anchor="middle" x="1971" y="-138.6" font-family="Times,serif" font-size="14.00">MessagesComponent</text>
</g>
<!-- MessagesComponent&#45;&gt;CoreModule -->
<g id="edge11" class="edge">
<title>MessagesComponent&#45;&gt;CoreModule</title>
<path fill="none" stroke="black" d="M1948.37,-161.04C1948.37,-176.37 1948.37,-195.8 1948.37,-195.8 1948.37,-195.8 934.17,-195.8 934.17,-195.8 934.17,-195.8 934.17,-196.29 934.17,-196.29"/>
<polygon fill="black" stroke="black" points="930.67,-190.68 934.17,-200.68 937.67,-190.68 930.67,-190.68"/>
</g>
<!-- MessagesComponent&#45;&gt;SharedModule -->
<g id="edge37" class="edge">
<title>MessagesComponent&#45;&gt;SharedModule</title>
<path fill="none" stroke="black" d="M1993.63,-160.99C1993.63,-164.34 1993.63,-166.8 1993.63,-166.8 1993.63,-166.8 2869.36,-166.8 2869.36,-166.8 2869.36,-166.8 2869.36,-166.22 2869.36,-166.22"/>
<polygon fill="black" stroke="black" points="2872.86,-170.99 2869.36,-160.99 2865.86,-170.99 2872.86,-170.99"/>
</g>
<!-- PageNotFoundComponent -->
<g id="node13" class="node">
<title>PageNotFoundComponent</title>
<polygon fill="#ffffb3" stroke="black" points="1884.83,-160.8 1719.17,-160.8 1719.17,-124.8 1884.83,-124.8 1884.83,-160.8"/>
<text text-anchor="middle" x="1802" y="-138.6" font-family="Times,serif" font-size="14.00">PageNotFoundComponent</text>
</g>
<!-- PageNotFoundComponent&#45;&gt;CoreModule -->
<g id="edge12" class="edge">
<title>PageNotFoundComponent&#45;&gt;CoreModule</title>
<path fill="none" stroke="black" d="M1774.44,-160.99C1774.44,-175.98 1774.44,-194.8 1774.44,-194.8 1774.44,-194.8 931.47,-194.8 931.47,-194.8 931.47,-194.8 931.47,-195.38 931.47,-195.38"/>
<polygon fill="black" stroke="black" points="927.97,-190.61 931.47,-200.61 934.97,-190.61 927.97,-190.61"/>
</g>
<!-- PageNotFoundComponent&#45;&gt;SharedModule -->
<g id="edge38" class="edge">
<title>PageNotFoundComponent&#45;&gt;SharedModule</title>
<path fill="none" stroke="black" d="M1829.56,-160.97C1829.56,-164.85 1829.56,-167.8 1829.56,-167.8 1829.56,-167.8 2876.93,-167.8 2876.93,-167.8 2876.93,-167.8 2876.93,-167.12 2876.93,-167.12"/>
<polygon fill="black" stroke="black" points="2880.43,-170.97 2876.93,-160.97 2873.43,-170.97 2880.43,-170.97"/>
</g>
<!-- toolbarComponent -->
<g id="node14" class="node">
<title>toolbarComponent</title>
<polygon fill="#ffffb3" stroke="black" points="1701.49,-160.8 1580.51,-160.8 1580.51,-124.8 1701.49,-124.8 1701.49,-160.8"/>
<text text-anchor="middle" x="1641" y="-138.6" font-family="Times,serif" font-size="14.00">toolbarComponent</text>
</g>
<!-- toolbarComponent&#45;&gt;CoreModule -->
<g id="edge13" class="edge">
<title>toolbarComponent&#45;&gt;CoreModule</title>
<path fill="none" stroke="black" d="M1620.84,-160.85C1620.84,-175.17 1620.84,-192.8 1620.84,-192.8 1620.84,-192.8 928.77,-192.8 928.77,-192.8 928.77,-192.8 928.77,-193.59 928.77,-193.59"/>
<polygon fill="black" stroke="black" points="925.27,-190.74 928.77,-200.74 932.27,-190.74 925.27,-190.74"/>
</g>
<!-- toolbarComponent&#45;&gt;SharedModule -->
<g id="edge39" class="edge">
<title>toolbarComponent&#45;&gt;SharedModule</title>
<path fill="none" stroke="black" d="M1661.16,-160.96C1661.16,-165.84 1661.16,-169.8 1661.16,-169.8 1661.16,-169.8 2884.5,-169.8 2884.5,-169.8 2884.5,-169.8 2884.5,-168.92 2884.5,-168.92"/>
<polygon fill="black" stroke="black" points="2888,-170.96 2884.5,-160.96 2881,-170.96 2888,-170.96"/>
</g>
<!-- HttpErrorInterceptor -->
<g id="node21" class="node">
<title>HttpErrorInterceptor</title>
<ellipse fill="#fdb462" stroke="black" cx="479" cy="-142.8" rx="90.87" ry="18"/>
<text text-anchor="middle" x="479" y="-138.6" font-family="Times,serif" font-size="14.00">HttpErrorInterceptor</text>
</g>
<!-- HttpErrorInterceptor&#45;&gt;CoreModule -->
<g id="edge21" class="edge">
<title>HttpErrorInterceptor&#45;&gt;CoreModule</title>
<path fill="none" stroke="black" d="M479,-160.93C479,-171.11 479,-181.8 479,-181.8 479,-181.8 881.53,-181.8 881.53,-181.8 881.53,-181.8 881.53,-190.73 881.53,-190.73"/>
<polygon fill="black" stroke="black" points="878.03,-190.73 881.53,-200.73 885.03,-190.73 878.03,-190.73"/>
</g>
<!-- LoadingInterceptor -->
<g id="node22" class="node">
<title>LoadingInterceptor</title>
<ellipse fill="#fdb462" stroke="black" cx="284" cy="-142.8" rx="85.65" ry="18"/>
<text text-anchor="middle" x="284" y="-138.6" font-family="Times,serif" font-size="14.00">LoadingInterceptor</text>
</g>
<!-- LoadingInterceptor&#45;&gt;CoreModule -->
<g id="edge22" class="edge">
<title>LoadingInterceptor&#45;&gt;CoreModule</title>
<path fill="none" stroke="black" d="M284,-160.9C284,-171.89 284,-183.8 284,-183.8 284,-183.8 875.56,-183.8 875.56,-183.8 875.56,-183.8 875.56,-190.48 875.56,-190.48"/>
<polygon fill="black" stroke="black" points="872.06,-190.48 875.56,-200.48 879.06,-190.48 872.06,-190.48"/>
</g>
<!-- TokenInterceptor -->
<g id="node23" class="node">
<title>TokenInterceptor</title>
<ellipse fill="#fdb462" stroke="black" cx="102" cy="-142.8" rx="78.13" ry="18"/>
<text text-anchor="middle" x="102" y="-138.6" font-family="Times,serif" font-size="14.00">TokenInterceptor</text>
</g>
<!-- TokenInterceptor&#45;&gt;CoreModule -->
<g id="edge23" class="edge">
<title>TokenInterceptor&#45;&gt;CoreModule</title>
<path fill="none" stroke="black" d="M102,-161.29C102,-172.94 102,-185.8 102,-185.8 102,-185.8 869.59,-185.8 869.59,-185.8 869.59,-185.8 869.59,-190.76 869.59,-190.76"/>
<polygon fill="black" stroke="black" points="866.09,-190.76 869.59,-200.76 873.09,-190.76 866.09,-190.76"/>
</g>
<!-- DashboardComponent -->
<g id="node24" class="node">
<title>DashboardComponent</title>
<polygon fill="#ffffb3" stroke="black" points="2600.98,-160.8 2459.02,-160.8 2459.02,-124.8 2600.98,-124.8 2600.98,-160.8"/>
<text text-anchor="middle" x="2530" y="-138.6" font-family="Times,serif" font-size="14.00">DashboardComponent</text>
</g>
<!-- DashboardComponent&#45;&gt;DashboardModule -->
<g id="edge24" class="edge">
<title>DashboardComponent&#45;&gt;DashboardModule</title>
<path fill="none" stroke="black" d="M2579.94,-160.81C2579.94,-160.81 2579.94,-190.65 2579.94,-190.65"/>
<polygon fill="black" stroke="black" points="2576.44,-190.65 2579.94,-200.65 2583.44,-190.65 2576.44,-190.65"/>
</g>
<!-- DashboardRoutingModule -->
<g id="node26" class="node">
<title>DashboardRoutingModule</title>
<polygon fill="#8dd3c7" stroke="black" points="2790.82,-160.8 2787.82,-164.8 2766.82,-164.8 2763.82,-160.8 2625.18,-160.8 2625.18,-124.8 2790.82,-124.8 2790.82,-160.8"/>
<text text-anchor="middle" x="2708" y="-138.6" font-family="Times,serif" font-size="14.00">DashboardRoutingModule</text>
</g>
<!-- DashboardRoutingModule&#45;&gt;DashboardModule -->
<g id="edge25" class="edge">
<title>DashboardRoutingModule&#45;&gt;DashboardModule</title>
<path fill="none" stroke="black" d="M2652.22,-160.81C2652.22,-160.81 2652.22,-190.65 2652.22,-190.65"/>
<polygon fill="black" stroke="black" points="2648.72,-190.65 2652.22,-200.65 2655.72,-190.65 2648.72,-190.65"/>
</g>
<!-- SharedModule&#45;&gt;ConfirmationDialogComponent  -->
<g id="edge41" class="edge">
<title>SharedModule&#45;&gt;ConfirmationDialogComponent </title>
<path fill="none" stroke="black" stroke-dasharray="5,2" d="M2816.36,-161C2816.36,-166.83 2816.36,-171.8 2816.36,-171.8 2816.36,-171.8 1491.06,-171.8 1491.06,-171.8 1491.06,-171.8 1491.06,-170.72 1491.06,-170.72"/>
<polygon fill="black" stroke="black" points="1494.56,-171 1491.06,-161 1487.56,-171 1494.56,-171"/>
</g>
<!-- SharedModule&#45;&gt;LoadingComponent  -->
<g id="edge42" class="edge">
<title>SharedModule&#45;&gt;LoadingComponent </title>
<path fill="none" stroke="black" stroke-dasharray="5,2" d="M2823.93,-160.83C2823.93,-167.65 2823.93,-173.8 2823.93,-173.8 2823.93,-173.8 1283.73,-173.8 1283.73,-173.8 1283.73,-173.8 1283.73,-170.83 1283.73,-170.83"/>
<polygon fill="black" stroke="black" points="1287.23,-170.83 1283.73,-160.83 1280.23,-170.83 1287.23,-170.83"/>
</g>
<!-- SharedModule&#45;&gt;MessagesComponent  -->
<g id="edge43" class="edge">
<title>SharedModule&#45;&gt;MessagesComponent </title>
<path fill="none" stroke="black" stroke-dasharray="5,2" d="M2831.5,-161.04C2831.5,-168.23 2831.5,-174.8 2831.5,-174.8 2831.5,-174.8 1015.62,-174.8 1015.62,-174.8 1015.62,-174.8 1015.62,-171.04 1015.62,-171.04"/>
<polygon fill="black" stroke="black" points="1019.12,-171.04 1015.62,-161.04 1012.12,-171.04 1019.12,-171.04"/>
</g>
<!-- SharedModule&#45;&gt;PageNotFoundComponent  -->
<g id="edge44" class="edge">
<title>SharedModule&#45;&gt;PageNotFoundComponent </title>
<path fill="none" stroke="black" stroke-dasharray="5,2" d="M2839.07,-160.99C2839.07,-169.08 2839.07,-176.8 2839.07,-176.8 2839.07,-176.8 899.44,-176.8 899.44,-176.8 899.44,-176.8 899.44,-170.99 899.44,-170.99"/>
<polygon fill="black" stroke="black" points="902.94,-170.99 899.44,-160.99 895.94,-170.99 902.94,-170.99"/>
</g>
<!-- SharedModule&#45;&gt;toolbarComponent  -->
<g id="edge45" class="edge">
<title>SharedModule&#45;&gt;toolbarComponent </title>
<path fill="none" stroke="black" stroke-dasharray="5,2" d="M2846.64,-161.22C2846.64,-170.08 2846.64,-178.8 2846.64,-178.8 2846.64,-178.8 676.75,-178.8 676.75,-178.8 676.75,-178.8 676.75,-171.22 676.75,-171.22"/>
<polygon fill="black" stroke="black" points="680.25,-171.22 676.75,-161.22 673.25,-171.22 680.25,-171.22"/>
</g>
<!-- SharedModule&#45;&gt;DashboardModule -->
<g id="edge27" class="edge">
<title>SharedModule&#45;&gt;DashboardModule</title>
<path fill="none" stroke="black" d="M2892.07,-160.81C2892.07,-183.29 2892.07,-218.8 2892.07,-218.8 2892.07,-218.8 2689.26,-218.8 2689.26,-218.8"/>
<polygon fill="black" stroke="black" points="2689.26,-215.3 2679.26,-218.8 2689.26,-222.3 2689.26,-215.3"/>
</g>
<!-- SharedModule&#45;&gt;HeroesModule -->
<g id="edge32" class="edge">
<title>SharedModule&#45;&gt;HeroesModule</title>
<path fill="none" stroke="black" d="M2899.64,-160.83C2899.64,-185.78 2899.64,-227.8 2899.64,-227.8 2899.64,-227.8 2981.16,-227.8 2981.16,-227.8"/>
<polygon fill="black" stroke="black" points="2981.16,-231.3 2991.16,-227.8 2981.16,-224.3 2981.16,-231.3"/>
</g>
<!-- HeroDetailComponent -->
<g id="node28" class="node">
<title>HeroDetailComponent</title>
<polygon fill="#ffffb3" stroke="black" points="3418.53,-160.8 3275.47,-160.8 3275.47,-124.8 3418.53,-124.8 3418.53,-160.8"/>
<text text-anchor="middle" x="3347" y="-138.6" font-family="Times,serif" font-size="14.00">HeroDetailComponent</text>
</g>
<!-- HeroDetailComponent&#45;&gt;HeroesModule -->
<g id="edge28" class="edge">
<title>HeroDetailComponent&#45;&gt;HeroesModule</title>
<path fill="none" stroke="black" d="M3347,-161C3347,-185.16 3347,-224.8 3347,-224.8 3347,-224.8 3100.85,-224.8 3100.85,-224.8"/>
<polygon fill="black" stroke="black" points="3100.85,-221.3 3090.85,-224.8 3100.85,-228.3 3100.85,-221.3"/>
</g>
<!-- HeroesComponent -->
<g id="node29" class="node">
<title>HeroesComponent</title>
<polygon fill="#ffffb3" stroke="black" points="3257.48,-160.8 3136.52,-160.8 3136.52,-124.8 3257.48,-124.8 3257.48,-160.8"/>
<text text-anchor="middle" x="3197" y="-138.6" font-family="Times,serif" font-size="14.00">HeroesComponent</text>
</g>
<!-- HeroesComponent&#45;&gt;HeroesModule -->
<g id="edge29" class="edge">
<title>HeroesComponent&#45;&gt;HeroesModule</title>
<path fill="none" stroke="black" d="M3197,-160.83C3197,-181.57 3197,-212.8 3197,-212.8 3197,-212.8 3100.79,-212.8 3100.79,-212.8"/>
<polygon fill="black" stroke="black" points="3100.79,-209.3 3090.79,-212.8 3100.79,-216.3 3100.79,-209.3"/>
</g>
<!-- HeroesRoutingModule -->
<g id="node31" class="node">
<title>HeroesRoutingModule</title>
<polygon fill="#8dd3c7" stroke="black" points="3113.32,-160.8 3110.32,-164.8 3089.32,-164.8 3086.32,-160.8 2968.68,-160.8 2968.68,-124.8 3113.32,-124.8 3113.32,-160.8"/>
<text text-anchor="middle" x="3041" y="-138.6" font-family="Times,serif" font-size="14.00">HeroesRoutingModule</text>
</g>
<!-- HeroesRoutingModule&#45;&gt;HeroesModule -->
<g id="edge30" class="edge">
<title>HeroesRoutingModule&#45;&gt;HeroesModule</title>
<path fill="none" stroke="black" d="M3041,-160.81C3041,-160.81 3041,-190.65 3041,-190.65"/>
<polygon fill="black" stroke="black" points="3037.5,-190.65 3041,-200.65 3044.5,-190.65 3037.5,-190.65"/>
</g>
</g>
</svg>
